<?xml version="1.0" encoding="utf-8"?>
<!-- Generator: Adobe Illustrator 27.5.0, SVG Export Plug-In . SVG Version: 6.00 Build 0)  -->
<svg version="1.1" xmlns="http://www.w3.org/2000/svg" xmlns:xlink="http://www.w3.org/1999/xlink" x="0px" y="0px"
	 viewBox="0 0 750 500" style="enable-background:new 0 0 750 500;" xml:space="preserve">
<g id="BACKGROUND">
	<rect style="fill:#EEF1FF;" width="750" height="500"/>
</g>
<g id="OBJECTS">
	<g>
		<g>
			<path style="fill:#B5E1FF;" d="M540.693,303.055H247.88c-5.523,0-10-4.477-10-10V80.388c0-5.523,4.477-10,10-10h292.813
				c5.523,0,10,4.477,10,10v212.667C550.693,298.578,546.216,303.055,540.693,303.055z"/>
			<g>
				<path style="fill:#FCFBFF;" d="M550.693,297.055H257.88c-5.523,0-10-4.477-10-10V74.388c0-5.523,4.477-10,10-10h292.813
					c5.523,0,10,4.477,10,10v212.667C560.693,292.578,556.216,297.055,550.693,297.055z"/>
				<path style="fill:none;stroke:#B5E1FF;stroke-width:1.5;stroke-linecap:round;stroke-linejoin:round;stroke-miterlimit:10;" d="
					M550.693,297.055H257.88c-5.523,0-10-4.477-10-10V74.388c0-5.523,4.477-10,10-10h292.813c5.523,0,10,4.477,10,10v212.667
					C560.693,292.578,556.216,297.055,550.693,297.055z"/>
			</g>
		</g>
		<g>
			<g>
				<rect x="355.988" y="162.973" style="fill:#1574DD;" width="32.5" height="54.187"/>
				<rect x="477.801" y="136.819" style="fill:#1574DD;" width="32.5" height="80.34"/>
				<rect x="414.822" y="147.388" style="fill:#FFAC00;" width="32.5" height="69.771"/>
				
					<line style="fill:none;stroke:#1574DD;stroke-width:1.5;stroke-miterlimit:10;" x1="345.113" y1="217.159" x2="521.751" y2="217.159"/>
			</g>
			<path style="fill:#FFAC00;" d="M338.096,116.904c-5.51-11.727-17.422-19.849-31.236-19.849v34.5L338.096,116.904z"/>
			<path style="fill:none;stroke:#B5E1FF;stroke-width:1.5;stroke-linecap:round;stroke-linejoin:round;stroke-miterlimit:10;" d="
				M338.096,116.904c-5.51-11.727-17.422-19.849-31.236-19.849v34.5L338.096,116.904z"/>
			
				<circle style="fill:none;stroke:#B5E1FF;stroke-width:1.5;stroke-linecap:round;stroke-linejoin:round;stroke-miterlimit:10;" cx="306.86" cy="131.555" r="34.5"/>
			<rect x="354.36" y="88.555" style="fill:#FFAC00;" width="34.128" height="5.25"/>
			<rect x="354.36" y="99.055" style="fill:#B5E1FF;" width="54.128" height="5.25"/>
			<rect x="354.36" y="107.805" style="fill:#B5E1FF;" width="54.128" height="5.25"/>
			<rect x="355.988" y="228.742" style="fill:#FFAC00;" width="34.128" height="5.25"/>
			<rect x="355.988" y="239.242" style="fill:#B5E1FF;" width="54.128" height="5.25"/>
			<rect x="355.988" y="247.992" style="fill:#B5E1FF;" width="34.128" height="5.25"/>
			<rect x="439.922" y="228.742" style="fill:#FFAC00;" width="34.128" height="5.25"/>
			<rect x="439.922" y="239.242" style="fill:#B5E1FF;" width="54.128" height="5.25"/>
			<rect x="439.922" y="247.992" style="fill:#B5E1FF;" width="34.128" height="5.25"/>
			<rect x="272.36" y="175.242" style="fill:#1574DD;" width="19.546" height="5.25"/>
			<rect x="272.36" y="185.742" style="fill:#B5E1FF;" width="31" height="5.25"/>
			<rect x="272.36" y="201.409" style="fill:#1574DD;" width="19.546" height="5.25"/>
			<rect x="272.36" y="211.909" style="fill:#B5E1FF;" width="31" height="5.25"/>
			<rect x="272.36" y="227.576" style="fill:#1574DD;" width="19.546" height="5.25"/>
			<rect x="272.36" y="238.076" style="fill:#B5E1FF;" width="31" height="5.25"/>
			<text transform="matrix(1 0 0 1 477.027 105.055)" style="fill:#FFAC00; font-family:'Poppins-SemiBold'; font-size:15px;">50 / 100</text>
		</g>
	</g>
	<g>
		<path style="fill:#D2552A;" d="M225.36,372.222c0,0-51.833,50.333-129.75,8.75l2.079-12.584l126.099-7.679L225.36,372.222z"/>
		<path style="fill:#7040BF;" d="M112.693,333.472L85.86,437.722h124.75c0,0,11.538-68,5.394-104.25H112.693z"/>
		<path style="fill:#492994;" d="M216.711,338.418c-0.204-1.703-0.437-3.357-0.707-4.947H112.693l-4.89,18.999L216.711,338.418z"/>
		
			<polyline style="fill:none;stroke:#492994;stroke-width:1.5;stroke-linecap:round;stroke-linejoin:round;stroke-miterlimit:10;" points="
			157.235,437.722 172.36,368.722 181.972,365.686 		"/>
		<path style="fill:#00184C;" d="M122.11,219.222c0,0-11.75-9.75-9-26.75s15.75-19.75,15.75-19.75s-15.25-15.75,2.5-36.25
			c0,0,5.5-5.25,12.25-6c0,0,5.5-25.5,34.5-22.75s20.124,31,11.937,34.75c0,0,4.914,13.25-2.512,19.75v8.75c0,0,19.825,5,22.325,26
			s-19.813,28.5-19.813,28.5S132.858,230.141,122.11,219.222z"/>
		<path style="fill:#FFAC00;" d="M145.84,199.003l-42.194,11.38c-2.572,0.694-4.701,2.484-5.82,4.901
			c-5.831,12.586-24.153,53.189-27.715,73.937c0,0-7.347,25.347,8.974,34.793c4.372,2.531,9.542,3.313,14.542,2.588l11.234-1.631
			l-9.25,56c0,0,40.25,5.25,48.25-23l5-24.5h50c0,0-3.5,28.25,26.5,38.75l-8.5-62.25l4.393-24.054l16.015,13.956
			c4.809,4.191,10.469,7.351,16.645,8.948c9.929,2.567,23.291,1.831,31.197-15.85c13.75-30.75,21.5-71.25,21.5-71.25l-18.25-18.75
			l-35.75,52.25l-31.054-42.817c-1.256-1.732-3.088-2.959-5.167-3.463l-41.029-9.938H145.84z"/>
		<path style="fill:#FCFBFF;" d="M203.693,260.055c-1.569-17.972-20.333-49.667-28.333-61.052h-29.52
			c0,0,15.187,83.552,3.02,134.469h50C198.86,333.472,204.829,273.062,203.693,260.055z"/>
		<path style="fill:#B5E1FF;" d="M203.085,282.699c-15.686,5.047-35.012,7.564-49.576,8.812
			c-0.308,14.811-1.643,29.382-4.648,41.961h50C198.86,333.472,201.694,304.792,203.085,282.699z"/>
		<path style="fill:#FFA189;" d="M175.36,199.003l-0.786-11.179c1.873,0.015,3.731-0.251,5.536-0.852c13.5-4.5,9.985-20.962,8-30
			c-0.899-4.092-2.122-8.68-4.025-12.826c-10.62,4.013-21.475-1.674-21.475-1.674c-4,8.5-11.5,9.75-11.5,9.75
			c0.335,6.359-1.791,10.298-3.236,12.216c0.546,1.734-2.034,34.566-2.034,34.566l0,0v0c0,0,3.097,19.467,4.533,32.368
			c4.112,0.342,8.336,0.531,12.656,0.531c10.63,0,20.716-1.09,29.817-3.033C186.751,216.597,179.567,204.991,175.36,199.003z"/>
		<path style="fill:#F8756A;" d="M166.159,148.222c0,0,12.325,3.888,18.571-2.59c-0.206-0.5-0.42-0.997-0.645-1.486
			c-10.62,4.013-21.475-1.674-21.475-1.674c-4,8.5-11.5,9.75-11.5,9.75c0.055,1.041,0.038,2.011-0.025,2.924
			C155.382,155.279,162.829,154.519,166.159,148.222z"/>
		<path style="fill:#FFA189;" d="M150.009,160.939c3.038,3.303,3.111,8.177,0.164,10.888c-2.947,2.711-7.799,2.231-10.836-1.072
			c-3.038-3.303-3.111-8.178-0.164-10.888C142.119,157.156,146.971,157.636,150.009,160.939z"/>
		<path style="fill:#FFAC00;" d="M83.86,295.972c0,0,3.5-15.25,24-17.75s43-0.75,51.75-3.5l1.764,25.5
			c0,0-36.912,23.25-56.514,24.75L83.86,295.972z"/>
		<path style="fill:#D2552A;" d="M108.46,278.036c0,0,2.393-5.986,6.962-25.464l-0.805,25.056L108.46,278.036z"/>
		<path style="fill:#F8756A;" d="M174.574,187.824c0,0-11.089-0.477-17.339-11.227c0,0,0.952,13.846,17.848,18.471L174.574,187.824z
			"/>
		
			<line style="fill:none;stroke:#F8756A;stroke-width:1.5;stroke-linecap:round;stroke-linejoin:round;stroke-miterlimit:10;" x1="141.61" y1="162.597" x2="148.86" y2="167.597"/>
		<path style="fill:none;stroke:#D2552A;stroke-width:1.5;stroke-linecap:round;stroke-linejoin:round;stroke-miterlimit:10;" d="
			M221.253,285.918c0,0,4.049-14.685,4.107-25.946c0.038-7.4-7.25-16.5-9.356-25.25"/>
		<polygon style="fill:#1574DD;" points="228.11,307.222 175.86,307.222 185.36,238.972 237.61,238.972 		"/>
		<path style="fill:#FFA189;" d="M159.756,276.836c0,0,8.229-3.74,10.854-7.115s11.604-8.149,11.604-8.149l-0.854,7.394
			c0,0,27.625-8.62,31.125-7.245s-3.25,5.5-3.25,5.5s6.5-2.344,6.75-0.984c0.25,1.359-2,4.984-3.375,5.984c0,0,1.75-0.5,1.875,1.25
			s-9,9.125-16.5,12c0,0,8.375-1.75,10.75,0c0,0-12.25,6.125-16.75,7.5s-30.81,4.37-30.81,4.37L159.756,276.836z"/>
		
			<line style="fill:none;stroke:#F8756A;stroke-width:1.5;stroke-linecap:round;stroke-linejoin:round;stroke-miterlimit:10;" x1="209.235" y1="267.222" x2="186.61" y2="274.722"/>
		<path style="fill:none;stroke:#F8756A;stroke-width:1.5;stroke-linecap:round;stroke-linejoin:round;stroke-miterlimit:10;" d="
			M212.61,272.222c0,0-15.25,6-23.625,8.25"/>
		
			<line style="fill:none;stroke:#F8756A;stroke-width:1.5;stroke-linecap:round;stroke-linejoin:round;stroke-miterlimit:10;" x1="197.985" y1="285.472" x2="190.485" y2="287.597"/>
		<path style="fill:none;stroke:#D2552A;stroke-width:1.5;stroke-linecap:round;stroke-linejoin:round;stroke-miterlimit:10;" d="
			M159.263,301.52c0,0-14.12,8.926-30.772,16.251"/>
		<path style="fill:none;stroke:#D2552A;stroke-width:1.5;stroke-linecap:round;stroke-linejoin:round;stroke-miterlimit:10;" d="
			M83.86,295.972c0,0,3.5-15.25,24-17.75s43-0.75,51.75-3.5"/>
		<path style="fill:none;stroke:#D2552A;stroke-width:1.5;stroke-linecap:round;stroke-linejoin:round;stroke-miterlimit:10;" d="
			M252.61,255.222c0,0-6.75,6.25-9.5,17"/>
		<polygon style="fill:#F8756A;" points="159.756,276.836 161.175,297.342 165.898,296.788 		"/>
		<path style="fill:#FFA189;" d="M289.593,204.238l14.046-18.674c0,0,5.467-6.144,13.125-9.75
			c9.357-4.406,21.625-12.75,21.625-12.75s4.125,2.625,0,6.5l-11.125,10.75l6.92,5.136c2.746,1.855,2.916,5.992,0.163,7.837
			c-0.144,0.096-0.296,0.189-0.458,0.278c0,0,1.5,4.5-3,6.625c0,0,0.125,3.25-3.125,4.625s-8.804-0.75-8.804-0.75
			s-1.2,6.689-10.95,8.564l-4.3,6.114L289.593,204.238z"/>
		<path style="fill:#FFA189;" d="M313.764,183.44l20-1.875c0,0,1.875,5.5-3.25,6.75s-10.375,3.25-10.375,3.25s0.83,7.875-7.022,10
			L313.764,183.44z"/>
		<path style="fill:none;stroke:#F8756A;stroke-width:1.5;stroke-linecap:round;stroke-linejoin:round;stroke-miterlimit:10;" d="
			M317.303,183.108l16.461-1.543c0,0,1.875,5.5-3.25,6.75s-10.375,3.25-10.375,3.25s0.83,7.875-7.022,10"/>
		<path style="fill:none;stroke:#F8756A;stroke-width:1.5;stroke-linecap:round;stroke-linejoin:round;stroke-miterlimit:10;" d="
			M320.139,191.565c0,0,10.125,3.25,13.75,2"/>
		<path style="fill:none;stroke:#F8756A;stroke-width:1.5;stroke-linecap:round;stroke-linejoin:round;stroke-miterlimit:10;" d="
			M318.96,197.16c0,0,5.929,3.655,11.929,3.03"/>
		<path style="fill:none;stroke:#F8756A;stroke-width:1.5;stroke-linecap:round;stroke-linejoin:round;stroke-miterlimit:10;" d="
			M318.96,204.065c0,0-3.154-2.356-2.862-3.803"/>
		<polygon style="fill:#F8756A;" points="289.593,204.238 307.029,214.254 303.71,218.742 		"/>
		<path style="fill:#00184C;" d="M172.794,159.619c0.08,1.067-0.47,1.978-1.227,2.035c-0.757,0.057-1.436-0.763-1.515-1.83
			c-0.08-1.067,0.47-1.978,1.227-2.035C172.036,157.733,172.714,158.552,172.794,159.619z"/>
		<path style="fill:#00184C;" d="M186.731,158.244c0.08,1.067-0.47,1.978-1.227,2.035c-0.757,0.057-1.436-0.763-1.515-1.83
			c-0.08-1.067,0.47-1.978,1.227-2.035C185.973,156.358,186.652,157.177,186.731,158.244z"/>
		<path style="fill:none;stroke:#00184C;stroke-width:3;stroke-linecap:round;stroke-linejoin:round;stroke-miterlimit:10;" d="
			M165.495,154.142c0,0,2.747-3.476,7.077-1.793"/>
		<path style="fill:none;stroke:#00184C;stroke-width:3;stroke-linecap:round;stroke-linejoin:round;stroke-miterlimit:10;" d="
			M181.219,151.408c0,0,1.81-2.29,4.807-2.252"/>
		<g>
			<path style="fill:none;stroke:#FCFBFF;stroke-width:1.5;stroke-linecap:round;stroke-linejoin:round;stroke-miterlimit:10;" d="
				M177.342,159.768c0,4.041-2.88,7.317-6.433,7.317c-3.553,0-6.433-3.276-6.433-7.317c0-4.041,2.88-7.317,6.433-7.317
				C174.462,152.451,177.342,155.727,177.342,159.768z"/>
			<path style="fill:none;stroke:#FCFBFF;stroke-width:1.5;stroke-linecap:round;stroke-linejoin:round;stroke-miterlimit:10;" d="
				M192.845,157.925c0,4.041-2.376,7.317-5.307,7.317c-2.931,0-5.306-3.276-5.306-7.317c0-4.041,2.376-7.317,5.306-7.317
				C190.47,150.608,192.845,153.884,192.845,157.925z"/>
			
				<line style="fill:none;stroke:#FCFBFF;stroke-width:1.5;stroke-linecap:round;stroke-linejoin:round;stroke-miterlimit:10;" x1="177.28" y1="158.771" x2="182.232" y2="157.925"/>
		</g>
		<path style="fill:none;stroke:#F8756A;stroke-width:1.5;stroke-linecap:round;stroke-linejoin:round;stroke-miterlimit:10;" d="
			M180.303,159.655c0,0,5.132,5.816,5.682,8.566s-4.625,2.375-4.625,2.375"/>
		<path style="fill:#FCFBFF;" d="M174.547,173.097l7.394,1c0,0-0.244,3.333-4.289,2.833S174.547,173.097,174.547,173.097z"/>
		
			<circle style="fill:none;stroke:#FCFBFF;stroke-width:1.5;stroke-linecap:round;stroke-linejoin:round;stroke-miterlimit:10;" cx="142.61" cy="182.888" r="10.75"/>
		
			<polyline style="fill:none;stroke:#00184C;stroke-width:1.5;stroke-linecap:round;stroke-linejoin:round;stroke-miterlimit:10;" points="
			205.286,238.972 204.473,244.388 222.953,244.388 223.693,238.972 		"/>
		<g>
			<path style="fill:#FCFBFF;" d="M151.209,68.055h-51.032c-3.109,0-5.628,2.52-5.628,5.629v18.762c0,3.108,2.52,5.629,5.628,5.629
				h32.971l10.463,11.774V98.074h7.598c3.109,0,5.628-2.52,5.628-5.629V73.684C156.838,70.575,154.318,68.055,151.209,68.055z"/>
			<circle style="fill:#B5E1FF;" cx="112.435" cy="82.363" r="2.975"/>
			<path style="fill:#B5E1FF;" d="M129.668,82.363c0,1.643-1.332,2.975-2.975,2.975c-1.643,0-2.975-1.332-2.975-2.975
				c0-1.643,1.332-2.975,2.975-2.975C128.336,79.388,129.668,80.72,129.668,82.363z"/>
			<path style="fill:#B5E1FF;" d="M142.61,82.363c0,1.643-1.332,2.975-2.975,2.975s-2.975-1.332-2.975-2.975
				c0-1.643,1.332-2.975,2.975-2.975S142.61,80.72,142.61,82.363z"/>
		</g>
	</g>
	<g>
		<g>
			<path style="fill:#7040BF;" d="M326.681,310.07l-34.821,13.485c0,0-25.167,9.167-28.667,30.833
				c-3.5,21.667-9.667,55.833-9.667,55.833l-46.333,8.833v18.667H416.36l-1.73-46.214l25.533-1.744
				c-5.553-35.542-11.803-63.709-49.469-72.709l-34.145-8.656L326.681,310.07z"/>
			<path style="fill:none;stroke:#492994;stroke-width:1.5;stroke-linecap:round;stroke-linejoin:round;stroke-miterlimit:10;" d="
				M319.183,313.15c0,0-1.573,24.822,22.427,23.572s22.616-26.484,22.616-26.484"/>
		</g>
		<g>
			<path style="fill:#FFA189;" d="M292.985,394.972l-36.436-1.711c-1.733,9.817-3.022,16.961-3.022,16.961l-46.333,8.833v18.667
				h85.565L292.985,394.972z"/>
			<polygon style="fill:#F8756A;" points="256.549,393.261 292.985,394.972 292.985,403.847 			"/>
		</g>
		<g>
			<path style="fill:#00184C;" d="M370.235,251.222c-1.625-8.5-9.875-9-9.875-9c1-6.5-5.375-11.375-15.25-10.375
				s-12.375-4.375-23.625-5.75s-16.25,9.5-13.625,18.875s13.625,10.25,13.625,10.25l0.875,31.125l27.368,0.75
				c7.115,0,12.882-5.401,12.882-12.063c0-1.036-0.154-2.037-0.417-2.997C367.68,266.535,371.358,257.098,370.235,251.222z"/>
			<path style="fill:#FFA189;" d="M357.735,263.222c-3.29,0-6.106,2.019-7.284,4.885c-2.38-2.188-4.551-5.969-4.716-12.51
				c0,0-9.274,4.034-12.75,0.625c-3.625-3.555-3.375-8.25-3.375-8.25s-3.268,6.875-11.17,4.695l-3.161,28.901
				c0,0-2.571,12.891,12.611,15.689l-1.531,16.216c0,0-0.987,14.678,11.833,15.25c18.667,0.833,18.667-15.25,18.667-15.25
				l-2.703-35.366c1.075,0.55,2.289,0.866,3.578,0.866c4.349,0,7.875-3.526,7.875-7.875
				C365.61,266.747,362.084,263.222,357.735,263.222z"/>
			<path style="fill:#F8756A;" d="M345.735,255.597c0,0-9.274,4.034-12.75,0.625c-3.625-3.555-3.375-8.25-3.375-8.25
				s-3.268,6.875-11.17,4.695c0,0,4.92,3.722,10.586,2.222c0,0,3.838,7.833,11.336,6.833c0,0,4.347,7.437,10.089,6.385
				C348.071,265.919,345.9,262.138,345.735,255.597z"/>
			<path style="fill:#F8756A;" d="M327.891,297.256c0,0,13.469,2.091,18.594-10.159c0,0-1.055,16.042-19.278,17.396L327.891,297.256
				z"/>
			
				<line style="fill:none;stroke:#F8756A;stroke-width:1.5;stroke-linecap:round;stroke-linejoin:round;stroke-miterlimit:10;" x1="353.36" y1="272.472" x2="361.485" y2="268.222"/>
			<path style="fill:none;stroke:#F8756A;stroke-width:1.5;stroke-linecap:round;stroke-linejoin:round;stroke-miterlimit:10;" d="
				M325.678,264.597l-5.258,8.574c-0.654,1.066-0.18,2.465,0.988,2.913l4.27,1.638"/>
			<path style="fill:none;stroke:#F8756A;stroke-width:1.5;stroke-linecap:round;stroke-linejoin:round;stroke-miterlimit:10;" d="
				M322.901,281.597c0,0,6.084,1.875,9.459-1.75"/>
			<ellipse style="fill:#00184C;" cx="320.537" cy="263.193" rx="1.375" ry="1.938"/>
			<ellipse style="fill:#00184C;" cx="334.071" cy="265.271" rx="1.375" ry="1.938"/>
			<path style="fill:none;stroke:#00184C;stroke-width:3;stroke-linecap:round;stroke-linejoin:round;stroke-miterlimit:10;" d="
				M332.039,259.159c0,0,4.25-1.25,6.813,2.625"/>
			<path style="fill:none;stroke:#00184C;stroke-width:3;stroke-linecap:round;stroke-linejoin:round;stroke-miterlimit:10;" d="
				M317.36,258.09c0,0,2.457-1.007,5.541,0"/>
		</g>
		
			<line style="fill:none;stroke:#492994;stroke-width:1.5;stroke-linecap:round;stroke-linejoin:round;stroke-miterlimit:10;" x1="292.61" y1="436.722" x2="293.36" y2="369.972"/>
		
			<line style="fill:none;stroke:#492994;stroke-width:1.5;stroke-linecap:round;stroke-linejoin:round;stroke-miterlimit:10;" x1="257.88" y1="385.681" x2="293.166" y2="387.472"/>
		<g>
			<path style="fill:#FFA189;" d="M341.86,417.555l-23.667-11.833c0,0-3.667-2.5-8.667,1.333c-5,3.833-19.667,17.667-26.333,18.333
				c0,0-2.5,5.5,5.333,5.5c0,0,3.167,3.667,9.333,1c0,0,4,3,9.667-0.5c0,0,3.667,2.5,9.667,1l8-2.5c0,0,5.833,7,16.667,7.833h77.167
				c0,0,28.667-2,25-26c-3.064-20.058-3.864-21.958-3.864-21.958l-43.313,2.959l1.442,12.974L341.86,417.555z"/>
			<polygon style="fill:#F8756A;" points="396.849,392.723 440.163,389.764 441.551,396.482 			"/>
			<path style="fill:none;stroke:#F8756A;stroke-width:1.5;stroke-linecap:round;stroke-linejoin:round;stroke-miterlimit:10;" d="
				M398.291,405.697c0,0,9.319-1.475,16.444,3.9"/>
			
				<line style="fill:none;stroke:#F8756A;stroke-width:1.5;stroke-linecap:round;stroke-linejoin:round;stroke-miterlimit:10;" x1="341.86" y1="417.555" x2="348.11" y2="420.472"/>
			<path style="fill:none;stroke:#F8756A;stroke-width:1.5;stroke-linecap:round;stroke-linejoin:round;stroke-miterlimit:10;" d="
				M325.193,429.888l6.292-2.542c0,0,5.5,7.25,12.625,5.875"/>
			
				<line style="fill:none;stroke:#F8756A;stroke-width:1.5;stroke-linecap:round;stroke-linejoin:round;stroke-miterlimit:10;" x1="307.527" y1="431.388" x2="322.735" y2="422.097"/>
			
				<line style="fill:none;stroke:#F8756A;stroke-width:1.5;stroke-linecap:round;stroke-linejoin:round;stroke-miterlimit:10;" x1="297.86" y1="431.888" x2="315.131" y2="418.097"/>
			
				<line style="fill:none;stroke:#F8756A;stroke-width:1.5;stroke-linecap:round;stroke-linejoin:round;stroke-miterlimit:10;" x1="288.527" y1="430.888" x2="308.36" y2="415.597"/>
		</g>
		
			<line style="fill:none;stroke:#492994;stroke-width:1.5;stroke-linecap:round;stroke-linejoin:round;stroke-miterlimit:10;" x1="396.849" y1="392.723" x2="392.86" y2="365.972"/>
		
			<line style="fill:none;stroke:#492994;stroke-width:1.5;stroke-linecap:round;stroke-linejoin:round;stroke-miterlimit:10;" x1="395.799" y1="385.681" x2="438.795" y2="381.355"/>
		<g>
			<rect x="231.36" y="429.805" style="fill:#1574DD;" width="93.25" height="7.917"/>
			<polygon style="fill:#B5E1FF;" points="276.172,437.722 176.693,437.722 156.693,359.388 256.172,359.388 			"/>
			<polygon style="fill:#1574DD;" points="256.172,359.388 249.171,359.388 269.172,437.722 276.172,437.722 			"/>
			<path style="fill:#FCFBFF;" d="M213.931,395.851c1.037,4.153-0.729,8.17-3.944,8.973s-6.662-1.913-7.699-6.065
				c-1.037-4.153,0.729-8.17,3.944-8.973C209.447,388.983,212.894,391.699,213.931,395.851z"/>
		</g>
	</g>
	<g>
		<path style="fill:#00184C;" d="M529.86,290.749c0,0-27.25,5.556-44.75-13.444s9.25-46.718,9.25-46.718s-14.25-13.282-7.5-26.032
			c0,0,6.667-9.25,18.958-3.25c0,0,14.367-19.5,38.329-8.5c23.962,11,23.705,42.004,22.962,47.668
			C567.11,240.473,596.685,285.982,529.86,290.749z"/>
		<g>
			<path style="fill:#FFA189;" d="M504.61,326.555l-4.5,13.25l-37.5-38.75c0,0,1.75-6.667-1.583-13.667c-3.333-7-1.167-15-1.167-15
				s-3.5-1.667-5.833,1.5l-3.553,11.203l-30.883-8.14c-0.569-0.179-1.154-0.285-1.75-0.312c-2.051-0.094-6.547,0.091-7.314,3.416
				c0,0-5.667-1.875-8.868,3.063l3.201,1.438c0,0-5.021,0.479-6.188,3.813l3.874,2.993c0,0,2.688,4.882,5.147,6.528
				c7.933,5.311,34.167,10.667,37.917,14.917l34.012,57.777c4.874,8.28,11.398,15.743,20.905,17.14
				c6.372,0.936,16.043-0.845,20.833-7.417c13.263-18.197,20.25-34,20.25-34L504.61,326.555z"/>
			
				<line style="fill:none;stroke:#F8756A;stroke-width:1.5;stroke-linecap:round;stroke-linejoin:round;stroke-miterlimit:10;" x1="500.11" y1="339.805" x2="511.527" y2="351.888"/>
			<path style="fill:#F8756A;" d="M531.75,341.042l-5.39,32.096c0,0,11.667-19.478,15.25-26.833L531.75,341.042z"/>
			
				<line style="fill:none;stroke:#F8756A;stroke-width:1.5;stroke-linecap:round;stroke-linejoin:round;stroke-miterlimit:10;" x1="410.527" y1="280.055" x2="431.193" y2="286.722"/>
			
				<line style="fill:none;stroke:#F8756A;stroke-width:1.5;stroke-linecap:round;stroke-linejoin:round;stroke-miterlimit:10;" x1="404.86" y1="284.555" x2="427.86" y2="291.555"/>
			
				<line style="fill:none;stroke:#F8756A;stroke-width:1.5;stroke-linecap:round;stroke-linejoin:round;stroke-miterlimit:10;" x1="401.659" y1="290.749" x2="424.693" y2="297.055"/>
			<path style="fill:none;stroke:#F8756A;stroke-width:1.5;stroke-linecap:round;stroke-linejoin:round;stroke-miterlimit:10;" d="
				M436.735,297.055c0,0,11.5-6.25,16.125,5"/>
		</g>
		<g>
			<path style="fill:#00184C;" d="M644.527,317.555c0,0,22.833,2.667,31.167,28.75c8.333,26.083-19,91.417-19,91.417H547.027
				l40.667-73.5L644.527,317.555z"/>
			
				<polyline style="fill:none;stroke:#013F81;stroke-width:1.5;stroke-linecap:round;stroke-linejoin:round;stroke-miterlimit:10;" points="
				606.027,373.138 612.15,377.638 599.235,437.722 			"/>
			<path style="fill:none;stroke:#013F81;stroke-width:1.5;stroke-linecap:round;stroke-linejoin:round;stroke-miterlimit:10;" d="
				M632.835,327.155l6.856,6.769c7.41,7.316,17.774,10.817,28.103,9.494l0.233-0.03"/>
			<path style="fill:none;stroke:#013F81;stroke-width:1.5;stroke-linecap:round;stroke-linejoin:round;stroke-miterlimit:10;" d="
				M646.693,437.722c0,0,24.667-76.058,15.667-94.029"/>
		</g>
		<g>
			<path style="fill:#1574DD;" d="M612.193,257.622c-4.688-5.906-11.316-9.11-17.036-10.847c-5.354-1.626-10.988-2.121-16.564-1.656
				l-17.234,1.436l-22.799,13.875l-8.413,4.496c-6.408,3.425-11.358,9.112-13.68,15.996c-0.676,2.005-1.313,4.29-1.858,6.882
				c-3,14.25-10,38.75-10,38.75l37,19.75l8.688-17.833c3.624,0.732,6.562,0.417,6.562,0.417c9.333,5.5,30.833,35.333,30.833,35.333
				l56.833-46.667C644.527,317.555,622.193,270.222,612.193,257.622z"/>
			<path style="fill:#013F81;" d="M550.298,328.472c0,0-9.852-0.119-11.605-8.583c-1.958-9.458-5.333-17.167-5.333-17.167
				s2.375,31.083-1.61,38.32l9.86,5.263L550.298,328.472z"/>
		</g>
		<g>
			<path style="fill:#FFA189;" d="M561.36,246.555l-18.285-9.075c2.786-1.058,4.785-3.895,4.785-7.238
				c0-4.246-3.218-7.688-7.188-7.688c-3.969,0-7.188,3.442-7.188,7.688c0,0.197,0.014,0.391,0.028,0.584
				c-0.104-0.088-0.199-0.17-0.305-0.26c-8.473-1.137-25.081-21.394-25.084-21.399c-1.569,1.88-2.851,4.347-3.264,7.554l0.333,8.5
				l-6.333,11h5.75c0,0-0.083,16.667,7.917,20.667c6.971,3.486,13.687,1.149,17.947-2.046l8.088,5.588
				c0,0,2.465,20.291,15.465,18.625C570.001,277.007,561.36,246.555,561.36,246.555z"/>
			<path style="fill:#F8756A;" d="M530.702,229.805c-8.862-3.907-22.575-20.632-22.578-20.637c-1.407,1.685-2.577,3.848-3.104,6.588
				C511.761,220.248,522.277,226.77,530.702,229.805L530.702,229.805z"/>
			<path style="fill:#F8756A;" d="M530.473,254.842c0,0,5.137-5.492,7.137-9.89c0,0,1.45,9.563-0.525,14.458L530.473,254.842z"/>
			
				<line style="fill:none;stroke:#F8756A;stroke-width:1.5;stroke-linecap:round;stroke-linejoin:round;stroke-miterlimit:10;" x1="538.123" y1="233.43" x2="542.86" y2="226.18"/>
			<path style="fill:#FCFBFF;" d="M511.36,241.222l8.167-3.333c0,0,1.271,4.417-3.042,5.792
				C512.984,244.796,511.36,241.222,511.36,241.222z"/>
			<ellipse style="fill:#00184C;" cx="510.422" cy="226.055" rx="1.375" ry="1.938"/>
			<path style="fill:none;stroke:#00184C;stroke-width:3;stroke-linecap:round;stroke-linejoin:round;stroke-miterlimit:10;" d="
				M508.11,218.901c0,0,4.25-1.25,6.813,2.625"/>
		</g>
		<g>
			<path style="fill:#FFA189;" d="M579.86,321.555l0.5,14l-42.75,53.75l-29.334,11.756c-2.215,0.888-4.077,2.48-5.298,4.531
				l-14.118,23.713c0,0,4.625,2.5,9-1.25l-1.75,3.625c0,0,6.625,1.625,9.875-1.875l-1.5,2.875c0,0,3.25,1.5,8.263,0.371
				c0,0,6.112,0,8.487-2.371c3.88-3.874,9.75-12.5,9.75-12.5s9.625,0.875,13.75-5.125l4.125-6l53.906-35.401
				c8.247-5.416,13.478-14.385,14.13-24.23l1.714-25.869H579.86z"/>
			
				<line style="fill:none;stroke:#F8756A;stroke-width:1.5;stroke-linecap:round;stroke-linejoin:round;stroke-miterlimit:10;" x1="497.86" y1="428.055" x2="508.36" y2="409.93"/>
			
				<line style="fill:none;stroke:#F8756A;stroke-width:1.5;stroke-linecap:round;stroke-linejoin:round;stroke-miterlimit:10;" x1="505.985" y1="429.805" x2="515.36" y2="412.18"/>
			
				<line style="fill:none;stroke:#F8756A;stroke-width:1.5;stroke-linecap:round;stroke-linejoin:round;stroke-miterlimit:10;" x1="512.748" y1="433.051" x2="521.86" y2="415.555"/>
			<polygon style="fill:#F8756A;" points="579.86,321.555 618.61,321.555 618.135,328.718 			"/>
		</g>
		<g>
			<rect x="444.36" y="429.805" style="fill:#1574DD;" width="93.25" height="7.917"/>
			<polygon style="fill:#B5E1FF;" points="489.171,437.722 389.693,437.722 369.693,359.388 469.171,359.388 			"/>
			<polygon style="fill:#1574DD;" points="469.171,359.388 462.171,359.388 482.171,437.722 489.171,437.722 			"/>
			<path style="fill:#FCFBFF;" d="M426.931,395.851c1.037,4.153-0.729,8.17-3.944,8.973c-3.215,0.803-6.662-1.913-7.699-6.065
				c-1.037-4.153,0.729-8.17,3.944-8.973C422.447,388.983,425.894,391.699,426.931,395.851z"/>
		</g>
		
			<line style="fill:none;stroke:#013F81;stroke-width:1.5;stroke-linecap:round;stroke-linejoin:round;stroke-miterlimit:10;" x1="579.86" y1="321.555" x2="577.61" y2="275.055"/>
		
			<line style="fill:none;stroke:#013F81;stroke-width:1.5;stroke-linecap:round;stroke-linejoin:round;stroke-miterlimit:10;" x1="618.61" y1="321.555" x2="618.61" y2="293.902"/>
	</g>
	
		<line style="fill:none;stroke:#B5E1FF;stroke-width:3;stroke-linecap:round;stroke-linejoin:round;stroke-miterlimit:10;" x1="63.36" y1="437.722" x2="680.027" y2="437.722"/>
</g>
</svg>
